<svg width="214" height="214" viewBox="0 0 214 214" fill="none" xmlns="http://www.w3.org/2000/svg">
    <path d="M107 214C121.051 214 134.965 211.232 147.947 205.855C160.929 200.478 172.725 192.596 182.66 182.66C192.596 172.725 200.478 160.929 205.855 147.947C211.232 134.965 214 121.051 214 107C214 92.9485 211.232 79.0347 205.855 66.0529C200.478 53.071 192.596 41.2754 182.66 31.3396C172.725 21.4037 160.929 13.5221 147.947 8.14488C134.965 2.76763 121.051 -5.29133e-06 107 -4.67712e-06L107 107L107 214Z" fill="#FFCC72"/>
    <path d="M107 -1.22743e-06C92.9486 -3.07006e-06 79.0347 2.76763 66.0529 8.14488C53.0711 13.5221 41.2755 21.4037 31.3396 31.3396C21.4037 41.2754 13.5222 53.071 8.14491 66.0529C2.76765 79.0347 1.52598e-05 92.9486 1.40314e-05 107C1.28029e-05 121.051 2.76765 134.965 8.1449 147.947C13.5222 160.929 21.4037 172.725 31.3396 182.66C41.2754 192.596 53.071 200.478 66.0529 205.855C79.0347 211.232 92.9486 214 107 214L107 107L107 -1.22743e-06Z" fill="#01CC88"/>
    <path d="M34 109.5L106.75 37.1869L106.75 181.813L34 109.5Z" fill="#FF8A00"/>
    <path d="M178 109.5L106 181.813L106 37.1869L178 109.5Z" fill="#FB4953"/>
    <path d="M121 94H117V90H113V94H101V90H97V94H93C90.794 94 89 95.794 89 98V126C89 128.206 90.794 130 93 130H121C123.206 130 125 128.206 125 126V98C125 95.794 123.206 94 121 94ZM113.704 117.422L107.004 124L100.306 117.422C99.8929 117.025 99.5643 116.548 99.3398 116.021C99.1153 115.493 98.9996 114.926 98.9996 114.353C98.9996 113.78 99.1153 113.213 99.3398 112.685C99.5643 112.158 99.8929 111.681 100.306 111.284C101.138 110.462 102.261 110.001 103.431 110.001C104.601 110.001 105.724 110.462 106.556 111.284L107.004 111.722L107.452 111.284C108.285 110.462 109.408 110.001 110.578 110.001C111.748 110.001 112.871 110.462 113.704 111.284C114.117 111.681 114.446 112.158 114.67 112.685C114.895 113.213 115.01 113.78 115.01 114.353C115.01 114.926 114.895 115.493 114.67 116.021C114.446 116.548 114.117 117.025 113.704 117.422V117.422ZM121 104H93V100H121V104Z" fill="#FFC2C2"/>
</svg>
