<svg width="425" height="332" viewBox="0 0 425 332" fill="none" xmlns="http://www.w3.org/2000/svg">
    <path d="M331.426 99.8769C413.239 67.456 465.913 143.575 465.913 143.575L476 99.8769C476 99.8769 389.704 36.0112 331.426 52.8178C273.148 69.6244 193.576 179.429 99.4351 206.32C5.29382 233.211 -10.3964 193.995 -10.3964 193.995L-16 235.452C-16 235.452 58.1779 247.623 105.039 241.054C208.228 226.589 249.613 132.298 331.426 99.8769Z" fill="#FFB129"/>
    <rect x="266" y="-23" width="192" height="182" rx="91" fill="#FFCC72"/>
    <path d="M362.497 74.3135C356.153 71.5012 356.153 62.4988 362.497 59.6865L418.758 34.7448C424.047 32.3999 430 36.2724 430 42.0584L430 91.9416C430 97.7277 424.047 101.6 418.758 99.2551L362.497 74.3135Z" fill="#01CC88"/>
    <path d="M78 -27L-96 -20L-96 319C-96 319 14 366 78 274C142 182 69 117 50 74C31 31 78 -27 78 -27Z" fill="#FF2E63"/>
    <rect x="-80" y="120" width="152" height="144" rx="72" fill="#01CC88"/>
    <rect x="-46" y="152" width="84" height="80" rx="40" fill="#FFB129"/>
</svg>
