<svg width="48" height="48" viewBox="0 0 77 77" fill="none" xmlns="http://www.w3.org/2000/svg">
    <path d="M6.41666 30.4792V12.8333C6.41666 11.9824 6.75468 11.1664 7.35636 10.5647C7.95804 9.96302 8.77409 9.625 9.625 9.625H67.375C68.2259 9.625 69.042 9.96302 69.6436 10.5647C70.2453 11.1664 70.5833 11.9824 70.5833 12.8333V30.4792C68.4561 30.4792 66.4159 31.3242 64.9117 32.8284C63.4075 34.3326 62.5625 36.3727 62.5625 38.5C62.5625 40.6273 63.4075 42.6674 64.9117 44.1716C66.4159 45.6758 68.4561 46.5208 70.5833 46.5208V64.1667C70.5833 65.0176 70.2453 65.8336 69.6436 66.4353C69.042 67.037 68.2259 67.375 67.375 67.375H9.625C8.77409 67.375 7.95804 67.037 7.35636 66.4353C6.75468 65.8336 6.41666 65.0176 6.41666 64.1667V46.5208C8.54392 46.5208 10.5841 45.6758 12.0882 44.1716C13.5924 42.6674 14.4375 40.6273 14.4375 38.5C14.4375 36.3727 13.5924 34.3326 12.0882 32.8284C10.5841 31.3242 8.54392 30.4792 6.41666 30.4792V30.4792ZM44.9167 16.0417H12.8333V25.564C15.2435 26.7584 17.272 28.6025 18.6902 30.8881C20.1083 33.1737 20.8598 35.8101 20.8598 38.5C20.8598 41.1899 20.1083 43.8263 18.6902 46.1119C17.272 48.3975 15.2435 50.2415 12.8333 51.436V60.9583H44.9167V16.0417ZM51.3333 16.0417V60.9583H64.1667V51.436C61.7565 50.2415 59.728 48.3975 58.3098 46.1119C56.8917 43.8263 56.1402 41.1899 56.1402 38.5C56.1402 35.8101 56.8917 33.1737 58.3098 30.8881C59.728 28.6025 61.7565 26.7584 64.1667 25.564V16.0417H51.3333Z" fill="#F8F8F8"/>
</svg>
