<svg width="128" height="128" viewBox="0 0 128 128" fill="none" xmlns="http://www.w3.org/2000/svg">
    <g clip-path="url(#clip0_304_2655)">
        <path d="M103.111 73.9555H101.867L103.111 54.4C103.111 32.5333 84.2667 21.1555 62.2222 21.1555C40.3556 21.1555 23.8222 32.5333 23.8222 54.4L25.0667 74.1333C24.7111 74.1333 24.1778 73.9555 23.8222 73.9555C18.8444 73.9555 14.7556 78.0444 14.7556 83.0222C14.7556 88 18.8444 92.0889 23.8222 92.0889C24.7111 92.0889 25.6 91.9111 26.3111 91.7333C26.8444 112 43.2 128 63.4667 128C83.5556 128 99.9111 112 100.622 92.0889H103.111C108.089 92.0889 112.178 88 112.178 83.0222C112.178 78.0444 108.089 73.9555 103.111 73.9555V73.9555Z" fill="#FFD3B6"/>
        <path d="M63.4667 97.2444C60.6222 97.2444 58.1333 95.8222 56.7111 93.5111C56.1778 92.8 56.5333 91.7333 57.2444 91.2C57.9556 90.6667 59.0222 91.0222 59.5555 91.7333C60.4444 93.1556 61.8667 93.8667 63.6444 93.8667C65.2444 93.8667 66.8444 92.9778 67.7333 91.7333C68.2667 91.0222 69.1556 90.6667 70.0444 91.2C70.7556 91.7333 71.1111 92.6222 70.5778 93.5111C68.8 95.8222 66.3111 97.2444 63.4667 97.2444V97.2444Z" fill="#E5AB83"/>
        <path d="M43.2 73.9556C43.0222 71.8222 41.2444 70.2222 39.1111 70.2222C36.9778 70.2222 35.2 71.8222 35.0222 73.9556V79.8222C35.0222 82.1333 36.8 83.9111 39.1111 83.9111C41.4222 83.9111 43.2 82.1333 43.2 79.8222V73.9556Z" fill="#2B3B47"/>
        <path d="M38.5778 73.7778C38.5778 73.2444 38.0445 72.8889 37.5111 72.8889C36.9778 72.8889 36.6222 73.2444 36.4445 73.7778V75.2C36.4445 75.7333 36.9778 76.2667 37.5111 76.2667C38.0445 76.2667 38.5778 75.7333 38.5778 75.2V73.7778Z" fill="#959DA3"/>
        <path d="M91.7333 73.9556C91.5555 71.8222 89.7778 70.2222 87.6444 70.2222C85.5111 70.2222 83.7333 71.8222 83.5555 73.9556V79.8222C83.5555 82.1333 85.3333 83.9111 87.6444 83.9111C89.9555 83.9111 91.7333 82.1333 91.7333 79.8222V73.9556Z" fill="#2B3B47"/>
        <path d="M87.1111 73.7778C87.1111 73.2444 86.5778 72.8889 86.0445 72.8889C85.5111 72.8889 85.1556 73.2444 84.9778 73.7778V75.2C84.9778 75.7333 85.5111 76.2667 86.0445 76.2667C86.5778 76.2667 87.1111 75.7333 87.1111 75.2V73.7778Z" fill="#959DA3"/>
        <path d="M60.0889 124.267C51.5555 124.267 43.7333 121.6 37.1555 117.333C43.9111 124.089 53.1555 128.178 63.4667 128.178C83.9111 128.178 100.622 111.467 100.622 91.0222L100.8 89.0667C97.9556 108.978 80.8889 124.267 60.0889 124.267V124.267Z" fill="#EDC0A2"/>
        <path d="M73.7778 107.378C71.2889 106.489 68.8 105.067 66.3111 104.889C64.7111 104.711 63.6445 105.956 63.2889 105.956C62.9333 105.956 61.5111 104.889 59.9111 104.889C57.4222 104.889 55.4667 106.133 52.9778 107.378C50.6667 108.444 48.7111 108.444 48.7111 108.444C48.7111 108.444 53.5111 115.733 63.4667 115.911C73.6 115.911 78.2222 108.444 78.2222 108.444C78.2222 108.444 76.4445 108.267 73.7778 107.378Z" fill="#FF7DDA"/>
        <path d="M81.7778 63.2889C81.7778 63.2889 81.9556 63.1111 82.3111 63.1111C82.4889 63.1111 82.6667 62.9333 83.0222 62.7556C83.3778 62.5778 83.5556 62.5778 83.9111 62.4C85.1556 61.8667 86.9333 61.6889 88.7111 61.8667C90.4889 62.0444 92.0889 62.9333 92.9778 63.8222C93.1556 64 93.3333 64.3556 93.5111 64.5333C93.6889 64.7111 93.8667 64.8889 93.8667 65.0667C94.0444 65.4222 94.2222 65.6 94.2222 65.6C94.4 65.9556 94.4 66.4889 94.0445 66.8444C93.6889 67.0222 93.1556 67.0222 92.9778 66.6667V66.4889L92.6222 66.1333L92.2667 65.7778C92.0889 65.6 91.9111 65.4222 91.7333 65.4222C91.0222 64.8889 89.7778 64.3556 88.5333 64.3556C87.2889 64.3556 86.0445 64.7111 85.1556 65.0667C84.9778 65.2444 84.8 65.2444 84.6222 65.4222C84.4444 65.6 84.4445 65.6 84.2667 65.6C83.7333 65.7778 83.5556 65.9556 83.5556 65.9556C82.8445 66.4889 81.7778 66.3111 81.2445 65.6C80.7111 64.8889 80.8889 63.8222 81.7778 63.2889C81.6 63.2889 81.6 63.2889 81.7778 63.2889V63.2889ZM43.3778 65.9556L43.0222 65.6C42.8445 65.4222 42.8445 65.4222 42.6667 65.4222C42.4889 65.2444 42.3111 65.2444 42.1333 65.0667C41.2445 64.7111 40 64.3556 38.7556 64.3556C37.5111 64.3556 36.2667 64.8889 35.5556 65.4222C35.3778 65.6 35.2 65.7778 35.0222 65.7778L34.6667 66.1333L34.3111 66.4889V66.6667C33.9556 67.0222 33.4222 67.0222 33.0667 66.8444C32.7111 66.4889 32.7111 66.1333 32.8889 65.7778C32.8889 65.7778 33.0667 65.6 33.2445 65.2445C33.4222 65.0667 33.4222 64.8889 33.6 64.7111C33.7778 64.5333 33.9556 64.1778 34.1333 64C35.0222 63.1111 36.8 62.2222 38.4 62.0445C40.1778 61.8667 41.9556 62.0445 43.2 62.5778C43.5556 62.7556 43.7333 62.7556 44.0889 62.9333C44.2667 63.1111 44.6222 63.1111 44.8 63.2889C45.1556 63.4667 45.3333 63.4667 45.3333 63.4667C46.0445 64 46.4 64.8889 45.8667 65.7778C45.3333 66.3111 44.4445 66.4889 43.3778 65.9556C43.5556 65.9556 43.5556 65.9556 43.3778 65.9556V65.9556Z" fill="#E5AB83"/>
        <path d="M111.111 54.7556C111.111 63.6444 110.756 71.2889 110.4 77.8667C108.8 75.5556 106.133 74.1333 103.111 74.1333H101.867L102.578 63.2889L63.1111 34.8444L24.3556 62.4L25.0667 74.1333C24.7111 74.1333 24.1778 73.9556 23.8222 73.9556C20.0889 73.9556 16.8889 76.0889 15.4667 79.2889C14.9333 72.3556 14.5778 64.1778 14.5778 54.5778C14.5778 53.5111 14.7556 52.6222 14.7556 51.9111C15.1111 39.6445 26.4889 21.6889 41.4222 14.2222C43.7333 13.1556 53.1556 10.3111 55.4667 9.95556C57.7778 9.6 60.2667 9.42223 62.7556 9.42223C65.2445 9.42223 67.7333 9.6 70.0445 9.95556C72.3556 10.3111 81.7778 13.1556 84.0889 14.2222C99.0222 21.6889 110.222 39.6445 110.756 51.9111C111.111 52.6222 111.111 53.5111 111.111 54.7556V54.7556ZM100.622 92.2667C100.267 101.689 96.3556 110.4 90.1333 116.8H102.044C102.044 116.8 106.667 111.467 109.333 89.7778C107.733 91.3778 105.422 92.2667 103.111 92.2667H100.622V92.2667ZM23.8222 92.2667C20.8 92.2667 17.9556 90.6667 16.3556 88.3556C19.0222 111.111 23.8222 116.8 23.8222 116.8H36.8C30.5778 110.4 26.6667 101.511 26.3111 91.9111C25.6 92.0889 24.7111 92.2667 23.8222 92.2667Z" fill="#FFB636"/>
        <path d="M85.8667 13.1556L90.1333 4.8C90.1333 4.8 73.7778 17.7778 63.1111 0.177778V9.77778V0C53.8667 18.6667 36.0889 4.62222 36.0889 4.62222L40.3556 12.9778C40 13.3333 39.6445 13.6889 39.6445 14.0444C39.6445 16.5333 50.1333 18.6667 63.1111 18.6667C76.0889 18.6667 86.5778 16.7111 86.5778 14.0444C86.5778 13.8667 86.2222 13.5111 85.8667 13.1556V13.1556Z" fill="#C4C43B"/>
        <path d="M89.7778 4.44444C87.1111 7.82222 82.1333 15.1111 76.2667 15.1111C70.5778 15.1111 65.6 8 62.9333 4.62222C60.4444 8 55.4667 15.2889 49.7778 15.2889C43.9111 15.2889 38.9333 8 36.2667 4.62222H35.9111L42.4889 24.1778C42.4889 27.7333 51.5555 30.4 62.9333 30.4C74.3111 30.4 83.3778 27.5556 83.3778 24.1778L89.9555 4.62222H89.7778V4.44444Z" fill="#DEE254"/>
    </g>
    <defs>
        <clipPath id="clip0_304_2655">
            <rect width="128" height="128" fill="white"/>
        </clipPath>
    </defs>
</svg>
