<svg width="128" height="128" viewBox="0 0 128 128" fill="none" xmlns="http://www.w3.org/2000/svg">
    <path d="M41.535 22.4312C44.4563 21.8883 46.3435 18.86 45.7502 15.6672C45.1569 12.4744 42.3078 10.3262 39.3865 10.8691C36.4652 11.4119 34.578 14.4403 35.1713 17.633C35.7646 20.8258 38.6137 22.974 41.535 22.4312Z" fill="#F19534"/>
    <path d="M92.8381 17.7766C93.4314 14.5838 91.3549 11.5203 88.2002 10.934C85.0454 10.3478 82.007 12.4608 81.4137 15.6536C80.8204 18.8464 82.8969 21.9099 86.0516 22.4961C89.2064 23.0824 92.2448 20.9693 92.8381 17.7766Z" fill="#F19534"/>
    <path d="M38.87 18.15C38.58 15.17 40.21 14.59 40.53 14.36C41.37 13.75 41.42 13.08 40.99 12.59C40.47 11.99 39.39 12.33 39.04 12.47C37.48 13.11 36 15.46 37.1 18.53C37.2 18.81 37.6 19.59 38.37 19.31C38.96 19.09 38.89 18.42 38.87 18.15V18.15ZM84.62 17.61C85.28 14.87 87.01 14.88 87.58 14.77C88.82 14.54 89.14 14.13 89.05 13.48C88.89 12.29 87.51 12.27 86.64 12.45C85.33 12.73 82.96 13.74 82.86 17.1C82.85 17.38 82.86 18.48 83.7 18.57C84.45 18.65 84.58 17.79 84.62 17.61Z" fill="#FFCA28"/>
    <path d="M36.41 32.2L39.1 39.5H88L91.6 32.57C87.52 28.43 88.04 20.72 88.04 20.72L84.58 19.33C84.58 19.33 79.95 29.83 62.91 29.83C45.87 29.83 43.09 19.33 43.09 19.33L39.21 20.72C39.2 20.72 40.84 27.89 36.41 32.2Z" fill="#F19534"/>
    <path d="M95.89 70.51H32.11C25.23 70.51 19.61 76.5 19.61 83.83C19.61 91.15 25.24 97.15 32.11 97.15H95.89C102.77 97.15 108.39 91.16 108.39 83.83C108.39 76.5 102.76 70.51 95.89 70.51V70.51Z" fill="#EDC391"/>
    <path d="M64 24.58C43.69 24.58 24.88 46.3 24.88 77.55C24.89 108.63 44.26 124 64 124C83.74 124 103.11 108.63 103.11 77.55C103.12 46.29 84.31 24.58 64 24.58Z" fill="#F9DDBD"/>
    <path d="M68.5 91.08C68.38 91.03 68.25 91 68.12 90.98H59.86C59.73 91 59.61 91.03 59.48 91.08C58.73 91.38 58.32 92.16 58.67 92.98C59.02 93.81 60.67 96.12 63.98 96.12C67.29 96.12 68.93 93.8 69.29 92.98C69.66 92.15 69.25 91.38 68.5 91.08Z" fill="#DBA689"/>
    <path d="M73.82 100.42C70.1 102.63 57.92 102.63 54.2 100.42C52.07 99.15 49.88 101.09 50.77 103.03C51.64 104.94 58.29 109.36 64.04 109.36C69.79 109.36 76.35 104.94 77.22 103.03C78.11 101.09 75.96 99.15 73.82 100.42Z" fill="#444444"/>
    <path d="M45.07 86.13C48.2014 86.13 50.74 83.5019 50.74 80.26C50.74 77.0181 48.2014 74.39 45.07 74.39C41.9385 74.39 39.4 77.0181 39.4 80.26C39.4 83.5019 41.9385 86.13 45.07 86.13Z" fill="#312D2D"/>
    <path d="M82.93 86.13C86.0615 86.13 88.6 83.5019 88.6 80.26C88.6 77.0181 86.0615 74.39 82.93 74.39C79.7986 74.39 77.26 77.0181 77.26 80.26C77.26 83.5019 79.7986 86.13 82.93 86.13Z" fill="#312D2D"/>
    <path d="M91.79 69.95C91.8 69.94 89.12 65.8 82.93 65.8C76.74 65.8 74.06 69.94 74.06 69.94L74.07 69.95C73.85 70.25 73.72 70.61 73.72 71.01C73.72 72.01 74.54 72.82 75.56 72.82C75.77 72.82 76.29 72.67 76.33 72.65C80.04 71.14 82.95 71.13 82.95 71.13C82.95 71.13 85.83 71.14 89.54 72.65C89.59 72.67 90.1 72.82 90.31 72.82C91.33 72.82 92.15 72.01 92.15 71.01C92.14 70.61 92.01 70.25 91.79 69.95V69.95ZM53.93 69.95C53.94 69.94 51.26 65.8 45.07 65.8C38.88 65.8 36.2 69.94 36.2 69.94L36.21 69.95C35.99 70.25 35.86 70.61 35.86 71.01C35.86 72.01 36.68 72.82 37.7 72.82C37.91 72.82 38.43 72.67 38.47 72.65C42.18 71.14 45.09 71.13 45.09 71.13C45.09 71.13 47.97 71.14 51.68 72.65C51.73 72.67 52.24 72.82 52.45 72.82C53.47 72.82 54.29 72.01 54.29 71.01C54.28 70.61 54.15 70.25 53.93 69.95V69.95Z" fill="#454140"/>
    <path d="M64.23 16.58H64.19C10.93 16.86 21.84 77.69 21.84 77.69C21.84 77.69 24.23 83.96 25.32 86.73C25.48 87.13 26.05 87.09 26.15 86.67C27.29 81.58 31.38 63.55 33.44 58.06C34.66 54.83 38.94 53.88 42.34 54.5C47.56 55.45 54.16 55.68 64.31 55.68C74.46 55.68 82.73 55.44 87.95 54.5C91.35 53.88 93.77 54.83 94.98 58.06C97.03 63.52 101.1 81.45 102.25 86.61C102.34 87.03 102.93 87.07 103.08 86.67L106.58 77.68C106.58 77.69 117.49 16.87 64.23 16.58V16.58Z" fill="#312D2D"/>
    <path d="M106.58 77.69C106.58 77.69 117.49 16.86 64.23 16.58H64.19C63.36 16.58 62.55 16.6 61.75 16.64C60.16 16.71 58.63 16.83 57.16 17H57.11C57.01 17.01 56.91 17.03 56.8 17.04C11.97 22.68 21.83 77.68 21.83 77.68L25.32 86.68C25.47 87.08 26.05 87.04 26.14 86.62C27.29 81.48 31.37 63.52 33.43 58.05C34.0205 56.4876 35.1409 55.1821 36.5957 54.3615C38.0506 53.5408 39.7474 53.2572 41.39 53.56C46.61 54.51 54.92 55.68 64.1 55.68C64.13 55.68 81.78 54.51 87 53.56C90.4 52.94 93.75 54.82 94.96 58.05C97.02 63.54 101.11 81.61 102.24 86.67C102.33 87.09 102.9 87.13 103.06 86.73C104.17 83.99 106.58 77.69 106.58 77.69V77.69Z" fill="url(#paint0_radial_304_2625)"/>
    <path d="M112.16 14.11C109.53 13.61 106.93 15.79 106.35 18.99C106.03 20.73 106.39 22.4 107.2 23.66C104.31 25.79 95.11 31.53 83.44 28.5C71.77 25.46 68.26 19.6 67.1 14.53C68.1895 13.8585 69.03 12.8497 69.4938 11.6569C69.9576 10.4641 70.0194 9.15249 69.6698 7.92138C69.3201 6.69027 68.5782 5.60694 67.5566 4.83599C66.5351 4.06504 65.2898 3.64862 64.01 3.65C62.7302 3.64862 61.4849 4.06504 60.4634 4.83599C59.4419 5.60694 58.6999 6.69027 58.3503 7.92138C58.0006 9.15249 58.0624 10.4641 58.5262 11.6569C58.99 12.8497 59.8305 13.8585 60.92 14.53C59.77 19.52 56.33 25.11 44.58 28.5C32.97 31.85 23.71 25.88 20.81 23.68C21.62 22.43 21.98 20.74 21.66 19C21.08 15.8 18.48 13.62 15.85 14.12C13.22 14.62 11.55 17.62 12.13 20.81C12.58 23.29 14.25 25.16 16.21 25.63L20.99 53.98C20.63 54.09 19.44 54.63 19.93 57.19L20.32 59.1C21.52 59 41.37 57.28 64.01 57.28C86.65 57.28 106.49 59 107.7 59.1L108.09 57.19C108.57 54.63 107.39 54.09 107.03 53.98L111.81 25.63C113.77 25.15 115.44 23.29 115.89 20.81C116.46 17.61 114.79 14.61 112.16 14.11V14.11Z" fill="#FFCA28"/>
    <path d="M64 46.92C67.3082 46.92 69.99 43.598 69.99 39.5C69.99 35.402 67.3082 32.08 64 32.08C60.6918 32.08 58.01 35.402 58.01 39.5C58.01 43.598 60.6918 46.92 64 46.92Z" fill="#26A69A"/>
    <path d="M64 33.91C64.24 34.18 64.42 35.09 63.79 35.79C62.72 36.96 61.3 37.97 60.86 38.23C60.42 38.5 60.01 38.3 59.87 38.19C59.22 37.65 59.47 36.44 59.89 35.7C60.79 34.08 62.69 32.43 64 33.91Z" fill="#69F0AE"/>
    <path d="M63.56 42.27C62.89 42.61 60.52 43.43 61.4 44.86C61.86 45.61 63.68 46.44 65.89 45.31C69.37 43.53 69.43 38.51 68.76 38.14C68.07 37.76 67.48 38.63 67.05 39.5C66.29 40.98 65.02 41.53 63.56 42.27V42.27Z" fill="#00796B"/>
    <path d="M103.82 44.07C104.35 40.85 105.86 38.37 107.77 38.71C110.36 39.17 111.27 42.07 110.73 45.29C110.2 48.51 108.45 50.73 105.84 50.36C104.2 50.13 103.29 47.29 103.82 44.07Z" fill="#26A69A"/>
    <path d="M108.5 40.49C108.74 40.65 109 40.98 108.86 41.81C108.72 42.64 107.17 44.14 106.89 44.44C106.61 44.74 106.36 44.71 106.24 44.65C105.63 44.38 105.56 43.39 105.73 42.73C106.07 41.3 107.18 39.63 108.5 40.49V40.49Z" fill="#69F0AE"/>
    <path d="M24.18 43.45C23.65 40.23 22.14 37.75 20.23 38.09C17.64 38.55 16.73 41.45 17.27 44.67C17.8 47.89 19.55 50.11 22.16 49.74C23.8 49.51 24.71 46.67 24.18 43.45Z" fill="#26A69A"/>
    <path d="M19.3 40.09C20.22 39.59 21.04 40.3 20.63 41.23C20.01 42.65 19.93 43.45 19.87 44C19.82 44.56 19.64 44.74 19.32 44.8C18.79 44.89 18.43 44.3 18.32 43.62C18.1 42.16 18.36 40.6 19.3 40.09Z" fill="#69F0AE"/>
    <path d="M41.5871 45.6487C43.6963 45.1134 44.906 42.7093 44.2892 40.279C43.6724 37.8486 41.4626 36.3124 39.3534 36.8477C37.2443 37.383 36.0345 39.7871 36.6514 42.2175C37.2682 44.6478 39.478 46.184 41.5871 45.6487Z" fill="#1C3AA9"/>
    <path d="M39.87 38.02C40.14 38.12 40.47 38.38 40.54 39.23C40.61 40.08 39.62 41.85 39.42 42.2C39.22 42.56 38.8 42.65 38.67 42.63C38 42.5 37.7 41.55 37.7 40.86C37.7 39.38 38.38 37.48 39.87 38.02V38.02Z" fill="#3B78E7"/>
    <path d="M91.3504 42.2212C91.9672 39.7909 90.7575 37.3868 88.6483 36.8515C86.5392 36.3162 84.3294 37.8524 83.7126 40.2827C83.0958 42.713 84.3055 45.1171 86.4147 45.6524C88.5238 46.1877 90.7336 44.6515 91.3504 42.2212Z" fill="#1C3AA9"/>
    <path d="M87.85 38.28C88.09 38.44 88.34 38.79 88.19 39.62C88.04 40.46 86.46 41.94 86.17 42.23C85.88 42.52 85.64 42.49 85.51 42.43C84.9 42.14 84.85 41.14 85.03 40.48C85.41 39.05 86.55 37.38 87.85 38.28Z" fill="#3B78E7"/>
    <path d="M61.64 10.76C62 7.45999 64.29 7.33999 64.71 7.25999C65.75 7.04999 65.97 6.55999 65.75 5.75999C65.52 4.89999 64.34 4.95999 63.96 4.96999C62.2 5.02999 59.36 6.83999 59.86 10.68C60.02 11.91 61.52 11.87 61.64 10.76ZM23.14 54.03C26.76 53.49 29.49 53.52 31.66 53.36C33.44 53.23 34.24 53.77 34.35 54.26C34.54 55.18 33.73 55.43 32.46 55.53C29.67 55.73 26.73 55.83 23.72 56.03C22.58 56.11 21.86 55.82 21.87 55.19C21.87 54.7 22.2 54.17 23.14 54.03V54.03ZM18.92 20.93C18.22 17.92 16.02 17.39 15.68 17.13C15.19 16.76 14.9 16.24 15.18 15.65C15.46 15.06 16.2 15.07 16.56 15.16C18.46 15.66 20.2 17.5 20.32 20.9C20.34 21.62 19.17 22.01 18.92 20.93ZM21.64 29.4C20.84 28.88 19.32 27.43 20.45 26.78C21.76 26.03 22.62 27.92 27.65 29.81C29.72 30.59 32.99 31.28 35.87 31.35C37.33 31.39 37.27 32.34 35.66 32.64C34.25 32.91 27.23 33.08 21.64 29.4V29.4ZM109.08 20.93C109.78 17.92 111.98 17.39 112.32 17.13C112.81 16.76 113.1 16.24 112.82 15.65C112.54 15.06 111.8 15.07 111.44 15.16C109.54 15.66 107.8 17.5 107.68 20.9C107.66 21.62 108.83 22.01 109.08 20.93ZM106.36 29.4C107.16 28.88 108.68 27.43 107.55 26.78C106.24 26.03 105.38 27.92 100.35 29.81C98.28 30.59 95.01 31.28 92.13 31.35C90.67 31.39 90.73 32.34 92.34 32.64C93.75 32.91 100.77 33.08 106.36 29.4V29.4Z" fill="#FFF59D"/>
    <path d="M64 55.3C40.18 55.3 20.13 57.17 19.92 57.19L20.31 59.1C20.51 59.08 40.27 57.3 64 57.3C87.73 57.3 107.48 59.08 107.69 59.1L108.08 57.19C107.87 57.17 87.82 55.3 64 55.3Z" fill="#E2A610"/>
    <path d="M64 50.33C34.52 50.33 20.79 52.02 20.65 52.04L20.98 53.98C21.12 53.96 34.66 52.33 64 52.33C93.34 52.33 106.88 53.96 107.02 53.98L107.35 52.04C107.21 52.02 93.48 50.33 64 50.33Z" fill="#F19534"/>
    <defs>
        <radialGradient id="paint0_radial_304_2625" cx="0" cy="0" r="1" gradientUnits="userSpaceOnUse" gradientTransform="translate(64.208 67.0611) scale(44.649 50.373)">
            <stop offset="0.794" stop-color="#454140" stop-opacity="0"/>
            <stop offset="1" stop-color="#454140"/>
        </radialGradient>
    </defs>
</svg>
