<svg width="50" height="16" viewBox="0 0 50 16" fill="none" xmlns="http://www.w3.org/2000/svg">
    <g clip-path="url(#clip0_5_434)">
        <path d="M50.4927 1.09756L49.6695 4.80244C49.6511 4.88871 49.6036 4.96605 49.535 5.02154C49.4664 5.07703 49.3809 5.10731 49.2927 5.10732H48.1219C48.069 5.10736 48.0166 5.09651 47.9681 5.07546C47.9195 5.05441 47.8758 5.02359 47.8397 4.98494C47.8036 4.94628 47.7758 4.90061 47.758 4.85075C47.7403 4.80089 47.733 4.74792 47.7366 4.69512V4.62622C47.7927 3.41829 47.0305 2.51525 45.3036 2.51586C42.4341 2.51586 40.3463 4.87134 40.0732 7.96463C39.7908 11.1591 42.0244 13.0152 45.1146 13.0146C46.3154 13.0181 47.5098 12.8399 48.6573 12.486C48.7212 12.4658 48.7892 12.4626 48.8547 12.4765C48.9202 12.4905 48.9809 12.5213 49.031 12.5657C49.0811 12.6102 49.1187 12.6669 49.1404 12.7303C49.162 12.7937 49.1667 12.8616 49.1542 12.9274L48.7884 14.8415C48.7734 14.9213 48.7372 14.9957 48.6836 15.0568C48.6299 15.1178 48.5608 15.1633 48.4835 15.1884C47.85 15.3902 46.0719 15.864 43.3494 15.8646C36.8817 15.8646 34.2573 12.1451 34.6634 8.35305C35.028 4.97622 37.2622 2.23538e-06 46.0732 2.23538e-06C47.459 -0.000749691 48.8385 0.188199 50.1731 0.561587C50.2854 0.592298 50.3813 0.665273 50.4409 0.765202C50.5005 0.865132 50.519 0.984249 50.4927 1.09756ZM13.7195 0.569514L13.5055 1.53598C13.4833 1.63992 13.5007 1.7484 13.5543 1.84019C13.6078 1.93199 13.6937 2.0005 13.7951 2.03232C14.1677 2.17561 14.25 2.53354 13.9256 2.80122L8.51402 7.29878L9.44329 3.06098C9.60182 2.41037 10.1183 2.14268 10.4451 2.03659L10.4982 2.02012C10.5687 1.99842 10.6323 1.95836 10.6823 1.90404C10.7324 1.84973 10.7671 1.7831 10.7829 1.71098L11.0049 0.707319C11.0171 0.651451 11.0166 0.593545 11.0035 0.537882C10.9904 0.482219 10.9649 0.430221 10.9289 0.385732C10.893 0.341242 10.8475 0.305399 10.7958 0.28085C10.7442 0.256301 10.6877 0.243675 10.6305 0.243905H3.65365C3.55798 0.243862 3.46517 0.276474 3.39055 0.336347C3.31593 0.396219 3.26398 0.479767 3.24329 0.573173L3.01768 1.59025C2.99602 1.69048 3.0121 1.79518 3.06285 1.88429C3.11359 1.9734 3.19543 2.04065 3.29268 2.07317L3.36158 2.09695C3.79939 2.26829 4.3067 2.65427 4.09329 3.6689L2.42622 11.2841C1.99085 13.364 1.28597 13.7884 0.613411 13.8665H0.59207C0.504335 13.8763 0.42187 13.9133 0.356253 13.9723C0.290636 14.0314 0.245162 14.1095 0.226216 14.1957L0.0103627 15.1713C-0.00227823 15.2301 -0.00161354 15.291 0.0123081 15.3494C0.0262298 15.4079 0.0530558 15.4625 0.0908214 15.5093C0.128587 15.5561 0.176336 15.5938 0.230571 15.6197C0.284805 15.6457 0.344152 15.6591 0.404265 15.6591H7.73963C7.82674 15.659 7.91121 15.6292 7.97915 15.5747C8.04708 15.5202 8.09443 15.4442 8.11341 15.3591L8.36646 14.2177C8.38647 14.1276 8.37362 14.0334 8.33024 13.952C8.28685 13.8706 8.21578 13.8074 8.12987 13.7738L8.08231 13.7549C7.71097 13.6043 7.20426 13.2835 7.33353 12.6787L8.18719 8.78476C11.1073 14.1274 12.0732 15.6646 15.5805 15.664H18.7457C18.8325 15.664 18.9166 15.6345 18.9843 15.5803C19.0521 15.5261 19.0993 15.4505 19.1183 15.3659L19.3396 14.3768C19.3532 14.3175 19.3534 14.2559 19.3403 14.1964C19.3271 14.137 19.3009 14.0812 19.2636 14.0331C19.2262 13.9851 19.1787 13.9459 19.1243 13.9184C19.07 13.891 19.0102 13.8759 18.9494 13.8744C18.1567 13.8622 17.7689 13.6787 16.9811 12.6659L12.9165 7.16524L18.1982 2.775C18.9067 2.22073 19.7713 2.06464 20.25 2.00122L20.2976 1.99634C20.3791 1.9887 20.4562 1.95546 20.5178 1.90135C20.5793 1.84725 20.6222 1.77506 20.6402 1.69512L20.8561 0.719514C20.8694 0.662603 20.8697 0.603408 20.8569 0.54637C20.8441 0.489331 20.8186 0.435929 20.7822 0.390168C20.7459 0.344408 20.6996 0.307477 20.6469 0.282146C20.5942 0.256815 20.5365 0.243741 20.478 0.243905H14.1244C14.0299 0.243812 13.9382 0.276062 13.8645 0.335295C13.7909 0.394528 13.7397 0.477178 13.7195 0.569514ZM33.261 4.79939H34.4963C34.5839 4.79951 34.6689 4.76971 34.7372 4.71493C34.8055 4.66015 34.853 4.58367 34.8719 4.49817L35.7122 0.710978C35.7243 0.654735 35.7236 0.596502 35.7103 0.540538C35.697 0.484574 35.6713 0.432293 35.6352 0.387521C35.5991 0.342749 35.5534 0.306618 35.5015 0.281769C35.4497 0.256921 35.3929 0.243984 35.3354 0.243905H22.3415C22.2456 0.243866 22.1527 0.276542 22.0779 0.336528C22.0032 0.396514 21.9512 0.480214 21.9305 0.573783L21.7073 1.58537C21.686 1.68112 21.7005 1.78134 21.748 1.86715C21.7955 1.95296 21.8728 2.01843 21.9652 2.05122L22.0085 2.06707C22.4354 2.23049 23.0317 2.64451 22.7726 3.66159L20.225 15.1963C20.2126 15.2524 20.2129 15.3106 20.226 15.3666C20.2391 15.4225 20.2645 15.4748 20.3005 15.5196C20.3365 15.5644 20.3821 15.6005 20.434 15.6253C20.4858 15.6501 20.5425 15.6629 20.6 15.6628H26.4439C26.5313 15.6628 26.616 15.633 26.6842 15.5784C26.7524 15.5237 26.7999 15.4475 26.8189 15.3622L27.0732 14.211C27.0915 14.1287 27.0808 14.0425 27.0429 13.9672C27.005 13.8919 26.9422 13.8319 26.8652 13.7976L26.8085 13.7713C26.4378 13.5884 25.886 13.1719 26.0707 12.364C26.0915 12.2561 26.6463 9.7561 26.6463 9.7561H31.6158C31.7035 9.7561 31.7886 9.72619 31.857 9.67132C31.9254 9.61644 31.973 9.53988 31.9921 9.45427L32.4597 7.34756C32.4722 7.29115 32.4719 7.23265 32.4588 7.17637C32.4457 7.1201 32.4201 7.06749 32.3839 7.02243C32.3478 6.97737 32.3019 6.941 32.2498 6.91601C32.1977 6.89102 32.1407 6.87805 32.0829 6.87805H27.2811L28.1768 2.79268L31.5305 2.78903C32.614 2.78903 32.9445 3.35488 32.8817 4.31951C32.8817 4.31951 32.8817 4.33232 32.8768 4.37134C32.8712 4.42524 32.8769 4.47972 32.8936 4.53126C32.9104 4.58281 32.9377 4.63028 32.9739 4.67061C33.0101 4.71094 33.0543 4.74324 33.1038 4.76542C33.1532 4.7876 33.2068 4.79917 33.261 4.79939Z" fill="#E4002B"/>
    </g>
    <defs>
        <clipPath id="clip0_5_434">
            <rect width="50" height="15.9756" fill="white"/>
        </clipPath>
    </defs>
</svg>
