<svg width="36" height="36" viewBox="0 0 25 24" fill="none" xmlns="http://www.w3.org/2000/svg">
    <path d="M22.1049 1.47999L22.6949 2.06999C23.5079 2.88399 23.3849 4.32699 22.4179 5.29299L10.2509 17.46L6.30891 18.902C5.81391 19.084 5.33191 18.848 5.23391 18.377C5.20079 18.2061 5.21638 18.0294 5.27891 17.867L6.74891 13.891L18.8819 1.75699C19.8489 0.790995 21.2919 0.666995 22.1049 1.48099V1.47999ZM9.71991 2.68999C9.85123 2.68999 9.98127 2.71586 10.1026 2.76612C10.2239 2.81637 10.3342 2.89003 10.427 2.98289C10.5199 3.07575 10.5935 3.18599 10.6438 3.30731C10.694 3.42864 10.7199 3.55867 10.7199 3.68999C10.7199 3.82132 10.694 3.95135 10.6438 4.07268C10.5935 4.194 10.5199 4.30424 10.427 4.3971C10.3342 4.48996 10.2239 4.56362 10.1026 4.61387C9.98127 4.66413 9.85123 4.68999 9.71991 4.68999H5.71991C5.18948 4.68999 4.68077 4.90071 4.3057 5.27578C3.93062 5.65085 3.71991 6.15956 3.71991 6.68999V18.69C3.71991 19.2204 3.93062 19.7291 4.3057 20.1042C4.68077 20.4793 5.18948 20.69 5.71991 20.69H17.7199C18.2503 20.69 18.7591 20.4793 19.1341 20.1042C19.5092 19.7291 19.7199 19.2204 19.7199 18.69V14.69C19.7199 14.4248 19.8253 14.1704 20.0128 13.9829C20.2003 13.7954 20.4547 13.69 20.7199 13.69C20.9851 13.69 21.2395 13.7954 21.427 13.9829C21.6146 14.1704 21.7199 14.4248 21.7199 14.69V18.69C21.7199 19.7509 21.2985 20.7683 20.5483 21.5184C19.7982 22.2686 18.7808 22.69 17.7199 22.69H5.71991C4.65904 22.69 3.64163 22.2686 2.89148 21.5184C2.14134 20.7683 1.71991 19.7509 1.71991 18.69V6.68999C1.71991 5.62913 2.14134 4.61171 2.89148 3.86157C3.64163 3.11142 4.65904 2.68999 5.71991 2.68999H9.71991V2.68999Z" fill="#FF2E63"/>
</svg>
